<svg version="1.2" xmlns="http://www.w3.org/2000/svg" viewBox="0 0 30 30" width="30" height="30"><style>.a{fill:#fff}</style><path class="a" d="m15 26.3c-0.8-0.1-1.3-0.6-1.3-1.3l0.1-7-5.4 5.4c-0.5 0.5-1.3 0.5-1.8 0-0.5-0.5-0.5-1.3 0-1.8l5.4-5.4h-7c-0.7 0-1.3-0.5-1.3-1.2 0.1-0.8 0.6-1.3 1.3-1.3h7l-5.4-5.3c-0.5-0.5-0.5-1.3 0-1.8 0.5-0.5 1.3-0.5 1.8 0l5.4 5.4v-7c0-0.8 0.5-1.3 1.2-1.3 0.8 0 1.3 0.5 1.3 1.3v7l5.3-5.4c0.5-0.5 1.3-0.5 1.8 0 0.5 0.5 0.5 1.3 0 1.8l-5.4 5.3h7c0.8 0 1.3 0.5 1.3 1.3 0 0.7-0.5 1.2-1.3 1.2h-7l5.4 5.4c0.5 0.5 0.5 1.3 0 1.8-0.5 0.5-1.3 0.5-1.8 0l-5.3-5.4v7c0 0.7-0.5 1.2-1.3 1.2z"/></svg>